<svg xmlns="http://www.w3.org/2000/svg" xmlns:xlink="http://www.w3.org/1999/xlink" width="1920" zoomAndPan="magnify" viewBox="0 0 1440 809.999993" height="1080" preserveAspectRatio="xMidYMid meet" version="1.0"><defs><g/><clipPath id="b5f459cb80"><path d="M 99.613281 242.453125 L 549.613281 242.453125 L 549.613281 591.203125 L 99.613281 591.203125 Z M 99.613281 242.453125 " clip-rule="nonzero"/></clipPath></defs><g clip-path="url(#b5f459cb80)"><path fill="#4b6bfb" d="M 406.300781 542.074219 C 391.816406 555.324219 375.207031 566.628906 356.480469 574.933594 C 353.65625 576.167969 350.652344 577.40625 347.648438 578.640625 C 327.507812 586.414062 305.425781 591.007812 281.398438 591.007812 C 187.414062 591.007812 99.613281 521.578125 99.613281 416.996094 C 99.613281 318.414062 179.289062 242.625 283.167969 242.625 C 307.722656 242.980469 333.339844 249.339844 357.011719 260.292969 C 353.480469 262.589844 349.945312 265.0625 346.589844 267.890625 C 325.742188 284.847656 312.847656 307.109375 309.488281 331.84375 C 300.65625 329.191406 291.824219 327.601562 283.167969 327.601562 C 231.933594 327.601562 189.179688 366.644531 189.179688 417.699219 C 189.179688 469.285156 233.875 507.445312 281.398438 507.445312 C 296.0625 507.445312 309.84375 503.914062 322.738281 497.554688 C 334.222656 492.078125 345 484.480469 354.890625 475.648438 C 355.246094 475.46875 355.421875 475.117188 355.773438 474.941406 Z M 463.011719 382.367188 C 426.972656 367.351562 403.476562 362.40625 403.476562 347.035156 C 403.476562 335.726562 416.546875 326.367188 434.746094 326.367188 C 450.644531 326.367188 476.261719 333.960938 486.152344 351.628906 L 537.210938 302.515625 C 524.136719 269.65625 484.5625 245.628906 433.683594 245.628906 C 411.25 245.628906 389.871094 250.753906 371.675781 260.117188 C 369.203125 261.351562 366.730469 262.765625 364.433594 264.179688 C 338.285156 279.902344 319.734375 304.457031 316.378906 334.316406 C 316.027344 336.613281 315.847656 339.085938 315.847656 341.558594 C 315.847656 342.617188 315.847656 343.5 315.847656 344.5625 C 315.847656 394.734375 352.066406 422.472656 394.113281 440.667969 C 426.792969 455.152344 460.890625 470.171875 460.890625 487.308594 C 460.890625 500.910156 442.519531 507.800781 423.613281 507.800781 C 408.421875 507.800781 393.757812 504.089844 381.214844 497.375 L 415.664062 543.308594 L 411.070312 547.550781 C 397.113281 560.269531 381.746094 570.691406 365.492188 578.820312 C 383.160156 585.003906 403.121094 588.535156 423.792969 588.535156 C 490.570312 588.535156 549.578125 549.140625 549.578125 485.71875 C 549.578125 436.074219 515.125 404.273438 463.011719 382.367188 Z M 463.011719 382.367188 " fill-opacity="1" fill-rule="nonzero"/></g><g fill="#141624" fill-opacity="1"><g transform="translate(599.626764, 503.818106)"><g><path d="M 146.09375 -108 C 158.300781 -105.394531 168.101562 -99.34375 175.5 -89.84375 C 182.894531 -80.34375 186.59375 -69.492188 186.59375 -57.296875 C 186.59375 -39.703125 180.441406 -25.753906 168.140625 -15.453125 C 155.847656 -5.148438 138.703125 0 116.703125 0 L 18.59375 0 L 18.59375 -210.59375 L 113.40625 -210.59375 C 134.800781 -210.59375 151.546875 -205.691406 163.640625 -195.890625 C 175.742188 -186.097656 181.796875 -172.800781 181.796875 -156 C 181.796875 -143.601562 178.546875 -133.300781 172.046875 -125.09375 C 165.546875 -116.894531 156.894531 -111.195312 146.09375 -108 Z M 69.90625 -125.40625 L 103.5 -125.40625 C 111.894531 -125.40625 118.34375 -127.253906 122.84375 -130.953125 C 127.34375 -134.648438 129.59375 -140.097656 129.59375 -147.296875 C 129.59375 -154.492188 127.34375 -159.992188 122.84375 -163.796875 C 118.34375 -167.597656 111.894531 -169.5 103.5 -169.5 L 69.90625 -169.5 Z M 107.703125 -41.40625 C 116.296875 -41.40625 122.941406 -43.351562 127.640625 -47.25 C 132.347656 -51.144531 134.703125 -56.796875 134.703125 -64.203125 C 134.703125 -71.597656 132.25 -77.394531 127.34375 -81.59375 C 122.445312 -85.800781 115.695312 -87.90625 107.09375 -87.90625 L 69.90625 -87.90625 L 69.90625 -41.40625 Z M 107.703125 -41.40625 "/></g></g></g><g fill="#141624" fill-opacity="1"><g transform="translate(797.326439, 503.818106)"><g><path d="M 69.90625 -222 L 69.90625 0 L 18.59375 0 L 18.59375 -222 Z M 69.90625 -222 "/></g></g></g><g fill="#141624" fill-opacity="1"><g transform="translate(885.82632, 503.818106)"><g><path d="M 94.796875 2.40625 C 78.398438 2.40625 63.648438 -1.09375 50.546875 -8.09375 C 37.453125 -15.09375 27.15625 -25.09375 19.65625 -38.09375 C 12.15625 -51.09375 8.40625 -66.296875 8.40625 -83.703125 C 8.40625 -100.898438 12.203125 -116.046875 19.796875 -129.140625 C 27.398438 -142.242188 37.800781 -152.296875 51 -159.296875 C 64.195312 -166.296875 79 -169.796875 95.40625 -169.796875 C 111.800781 -169.796875 126.597656 -166.296875 139.796875 -159.296875 C 152.992188 -152.296875 163.394531 -142.242188 171 -129.140625 C 178.601562 -116.046875 182.40625 -100.898438 182.40625 -83.703125 C 182.40625 -66.503906 178.550781 -51.351562 170.84375 -38.25 C 163.144531 -25.144531 152.644531 -15.09375 139.34375 -8.09375 C 126.050781 -1.09375 111.203125 2.40625 94.796875 2.40625 Z M 94.796875 -42 C 104.597656 -42 112.945312 -45.597656 119.84375 -52.796875 C 126.75 -59.992188 130.203125 -70.296875 130.203125 -83.703125 C 130.203125 -97.097656 126.847656 -107.394531 120.140625 -114.59375 C 113.441406 -121.800781 105.195312 -125.40625 95.40625 -125.40625 C 85.40625 -125.40625 77.101562 -121.851562 70.5 -114.75 C 63.894531 -107.644531 60.59375 -97.296875 60.59375 -83.703125 C 60.59375 -70.296875 63.84375 -59.992188 70.34375 -52.796875 C 76.84375 -45.597656 84.992188 -42 94.796875 -42 Z M 94.796875 -42 "/></g></g></g><g fill="#141624" fill-opacity="1"><g transform="translate(1076.92598, 503.818106)"><g><path d="M 82.203125 -169.796875 C 94.003906 -169.796875 104.351562 -167.394531 113.25 -162.59375 C 122.144531 -157.800781 128.992188 -151.503906 133.796875 -143.703125 L 133.796875 -167.40625 L 185.09375 -167.40625 L 185.09375 -0.296875 C 185.09375 15.097656 182.039062 29.046875 175.9375 41.546875 C 169.84375 54.046875 160.546875 63.992188 148.046875 71.390625 C 135.546875 78.796875 120 82.5 101.40625 82.5 C 76.601562 82.5 56.5 76.648438 41.09375 64.953125 C 25.695312 53.253906 16.898438 37.40625 14.703125 17.40625 L 65.40625 17.40625 C 67 23.800781 70.796875 28.847656 76.796875 32.546875 C 82.796875 36.242188 90.195312 38.09375 99 38.09375 C 109.601562 38.09375 118.050781 35.039062 124.34375 28.9375 C 130.644531 22.84375 133.796875 13.097656 133.796875 -0.296875 L 133.796875 -24 C 128.796875 -16.195312 121.894531 -9.84375 113.09375 -4.9375 C 104.300781 -0.0390625 94.003906 2.40625 82.203125 2.40625 C 68.398438 2.40625 55.898438 -1.144531 44.703125 -8.25 C 33.503906 -15.351562 24.65625 -25.453125 18.15625 -38.546875 C 11.65625 -51.648438 8.40625 -66.800781 8.40625 -84 C 8.40625 -101.195312 11.65625 -116.296875 18.15625 -129.296875 C 24.65625 -142.296875 33.503906 -152.296875 44.703125 -159.296875 C 55.898438 -166.296875 68.398438 -169.796875 82.203125 -169.796875 Z M 133.796875 -83.703125 C 133.796875 -96.503906 130.242188 -106.601562 123.140625 -114 C 116.046875 -121.394531 107.398438 -125.09375 97.203125 -125.09375 C 87.003906 -125.09375 78.351562 -121.441406 71.25 -114.140625 C 64.144531 -106.847656 60.59375 -96.800781 60.59375 -84 C 60.59375 -71.195312 64.144531 -61.046875 71.25 -53.546875 C 78.351562 -46.046875 87.003906 -42.296875 97.203125 -42.296875 C 107.398438 -42.296875 116.046875 -45.992188 123.140625 -53.390625 C 130.242188 -60.796875 133.796875 -70.898438 133.796875 -83.703125 Z M 133.796875 -83.703125 "/></g></g></g></svg>